<svg xmlns="http://www.w3.org/2000/svg" width="800" height="800" fill="none" viewBox="0 0 800 800">
  <g clip-path="url(#a)">
    <path fill="#DBDCD9" d="m238.332 110.429-90.76 92.86L122 195.687 228.8 87l9.532 23.429Z"/>
    <path fill="#B2B1B0" d="M329.253 110.429h-90.921l-9.08-22.993h116.742l-16.741 22.993Z"/>
    <path fill="#8B9D9C" d="M441.937 437.891 329.253 110.429l16.741-22.993 118.894 343.289-22.951 7.166Z"/>
    <path fill="#B2B1B0" d="M662.395 292.169 637.036 713.5H489.153V292.169h173.242Z"/>
    <path fill="#CDCDCD" d="M489.153 292.169V713.5H341.271l-25.359-421.331h173.241Zm188.027-27.34H301.126v27.34H677.18v-27.34Z"/>
    <path fill="#D61F27" d="M643.553 605.249H334.762l-12.709-211.012h334.286l-12.786 211.012Z"/>
    <path fill="#F6C914" d="M580.664 499.747c0 47.719-40.631 86.411-90.759 86.411s-90.75-38.692-90.75-86.411c0-47.72 40.639-86.429 90.75-86.429s90.759 38.692 90.759 86.429Z"/>
    <path fill="#E4E4E4" d="m489.931 437.105 21.387 41.255 47.779 6.602-34.574 32.089 8.165 45.329-42.757-21.387-42.724 21.387 8.157-45.329-34.583-32.089 47.788-6.602 21.362-41.255Z"/>
    <path fill="#DBDCD9" d="M266.125 87.436h-11.044v22.993h11.044V87.436Zm21.498 0h-11.044v22.993h11.044V87.436Zm21.49 0h-11.044v22.993h11.044V87.436Z"/>
  </g>
  <defs>
    <clipPath id="a">
      <path fill="#fff" d="M0 0h555.18v626.5H0z" transform="translate(122 87)"/>
    </clipPath>
  </defs>
</svg>
