<svg xmlns="http://www.w3.org/2000/svg" width="800" height="800" fill="none" viewBox="0 0 800 800">
  <path fill="#CF5627" d="M622.106 50h-444.04l5.77 80.92h432.51l5.76-80.92Zm-444.04 699h444.04l-5.76-80.92h-432.51l-5.77 80.92Z"/>
  <path fill="#E76624" d="M616.346 130.92h-216.26v537.16h216.26c37.03-107.8 37.23-428.8 0-537.16Z"/>
  <path fill="#ED7D22" d="M183.836 130.92c-37 107.8-37.23 428.8 0 537.16h216.25V130.92h-216.25Z"/>
  <path fill="#FDE712" d="M430.126 458.52c-166.05 108.31-248.79-105.69-155.14-84.38 118 26.86 211.6-46.07 223.78-67.29 23.48 43.96-7.89 112.24-68.64 151.67Z"/>
  <path fill="#F6C914" d="M469.036 450.14c-116.92 38.84-143-61.11-194-76 105.1 20.34 177.78-17.76 217.75-75 53.6-76.78 128.58 100.32-23.75 151Z"/>
  <path fill="#FDE712" d="M304.986 316.65a5.796 5.796 0 0 1-1.568 6.252 5.801 5.801 0 0 1-8.87-1.321 5.8 5.8 0 0 1 3.028-8.441 5.809 5.809 0 0 1 7.41 3.51Zm50.37 29.05a7.872 7.872 0 0 1-2.122 8.496 7.878 7.878 0 0 1-12.054-1.784 7.882 7.882 0 0 1 10.126-11.176 7.878 7.878 0 0 1 4.05 4.464Zm-1.6-36.57a9.341 9.341 0 0 1-12.789 11.587 9.339 9.339 0 0 1 .849-17.237 9.334 9.334 0 0 1 10.069 2.521 9.323 9.323 0 0 1 1.871 3.129Z"/>
  <path fill="#AD4925" d="M214.116 63.14v40.13c0 19.27 29.23 19.41 29.23 0V63.14h-29.23Zm68.54 0v40.13c0 19.27 29.23 19.41 29.23 0V63.14h-29.23Zm68.55 0v40.13c0 19.27 29.23 19.41 29.23 0V63.14h-29.23Zm68.54 0v40.13c0 19.27 29.23 19.41 29.23 0V63.14h-29.23Zm68.54 0v40.13c0 19.27 29.24 19.41 29.24 0V63.14h-29.24Zm68.55 0v40.13c0 19.27 29.23 19.41 29.23 0V63.14h-29.23Zm29.23 672.72v-40.13c0-19.27-29.23-19.4-29.23 0v40.13h29.23Zm-68.54 0v-40.13c0-19.27-29.24-19.4-29.24 0v40.13h29.24Zm-68.54 0v-40.13c0-19.27-29.23-19.4-29.23 0v40.13h29.23Zm-68.55 0v-40.13c0-19.27-29.23-19.4-29.23 0v40.13h29.23Zm-68.55 0v-40.13c0-19.27-29.23-19.4-29.23 0v40.13h29.23Zm-68.54 0v-40.13c0-19.27-29.23-19.4-29.23 0v40.13h29.23Z"/>
</svg>
