<svg xmlns="http://www.w3.org/2000/svg" width="800" height="800" fill="none" viewBox="0 0 800 800">
  <path fill="#B7E4F5" d="M400 693.8c179.493 0 325-134.27 325-299.9C725 228.27 579.493 94 400 94S75 228.27 75 393.9c0 165.63 145.507 299.9 325 299.9Z"/>
  <path fill="#3DBBD0" d="M654.39 393.9c0 129.64-113.88 234.75-254.39 234.75S145.59 523.54 145.59 393.9 259.49 159.14 400 159.14s254.39 105.1 254.39 234.76Z"/>
  <path fill="#53C5D5" d="M632.44 393.9c0 118.46-104.07 214.49-232.44 214.49S167.56 512.36 167.56 393.9c0-118.46 104.07-214.5 232.44-214.5s232.44 96.04 232.44 214.5Z"/>
  <path fill="#D3EEFB" d="M444 233.28a106.498 106.498 0 0 1-127.281 104.453 106.494 106.494 0 0 1-54.529-29.15 106.495 106.495 0 0 1-23.08-116.066 106.497 106.497 0 0 1 98.4-65.737A106.492 106.492 0 0 1 444 233.28Z"/>
  <path fill="#ED3024" d="M409.89 233.28a72.39 72.39 0 1 1-144.779 0 72.39 72.39 0 0 1 144.779 0Z"/>
  <path fill="#BC2025" d="M385.84 233.28a48.331 48.331 0 0 1-8.148 26.857 48.335 48.335 0 0 1-49.626 20.553 48.34 48.34 0 1 1 57.774-47.41Z"/>
  <path fill="#D3EEFB" d="M640.32 351.45a106.5 106.5 0 1 1-213 .1 106.5 106.5 0 0 1 213-.1Z"/>
  <path fill="#9CC03B" d="M606.21 351.45a72.39 72.39 0 1 1-72.38-72.39 72.38 72.38 0 0 1 72.38 72.39Z"/>
  <path fill="#86A53E" d="M579.7 351.45a45.875 45.875 0 0 1-28.318 42.396 45.877 45.877 0 0 1-50.004-9.944A45.88 45.88 0 1 1 579.7 351.45Z"/>
  <path fill="#F6C914" d="M238 320.34C169.25 333.8 97.11 406.36 77.32 475.28c95.7 8.33 122.59 16.5 206.81 63.49 22.28-68.16 3.29-168.69-46.13-218.43Z"/>
  <path fill="#F7B318" d="M282.84 438.05c-50.5 48.6-71.75 148.68-51 217.33 84.93-44.91 111.94-52.63 208.19-58.81-18.25-69.36-88.73-143.52-157.19-158.52Z"/>
  <path fill="#F6C914" d="M333.92 490.69c-21.08 66.84 8.14 164.89 59.2 215.24 53.08-80.06 73.11-99.76 154.67-151.25-49.2-52.17-146.57-83.58-213.87-63.99Z"/>
  <path fill="#F7B318" d="M400.29 537.42C421.92 604.09 502.62 667 573.42 678.35c-3.24-96 1.64-123.68 38.18-212.94-70.35-13.94-167.87 17-211.31 72.01ZM246.43 367.15a6.156 6.156 0 0 1-1.996 2.96 6.156 6.156 0 0 1-6.803.64 6.153 6.153 0 0 1-3.196-6.039 6.15 6.15 0 1 1 11.995 2.439ZM409 636a6.163 6.163 0 0 1-11.332 1.085 6.165 6.165 0 0 1 .693-6.811 6.154 6.154 0 0 1 10.186 1.039A6.166 6.166 0 0 1 409 636Zm-35.46-63.35a6.15 6.15 0 1 1-4.08-7.69 6.16 6.16 0 0 1 4.08 7.69ZM142.75 427.42a7.498 7.498 0 0 1-13.789 1.339 7.497 7.497 0 0 1 .819-8.289 7.505 7.505 0 0 1 7.97-2.42 7.496 7.496 0 0 1 5.292 6.453 7.494 7.494 0 0 1-.292 2.917Zm250.19 244.3a7.503 7.503 0 0 1-6.448 5.273 7.496 7.496 0 0 1-7.342-3.934 7.506 7.506 0 0 1 .82-8.289 7.5 7.5 0 0 1 12.97 6.95Zm28.13-70.66a7.501 7.501 0 0 1-13.791 1.351 7.496 7.496 0 0 1 4.438-10.71 7.497 7.497 0 0 1 9.642 6.445 7.499 7.499 0 0 1-.289 2.914ZM195.26 372.89a9.13 9.13 0 1 1-6.05-11.41 9.132 9.132 0 0 1 5.392 4.45 9.124 9.124 0 0 1 .658 6.96Zm-2.81 44.55a10.382 10.382 0 0 1-14.85 6.058 10.383 10.383 0 0 1-5.391-10.186 10.383 10.383 0 0 1 13.361-8.872 10.39 10.39 0 0 1 6.88 13Zm45.15 13.86a10.382 10.382 0 0 1-14.85 6.058 10.383 10.383 0 0 1-5.391-10.186 10.389 10.389 0 0 1 2.323-5.556 10.378 10.378 0 0 1 18.338 5.646 10.354 10.354 0 0 1-.42 4.038Zm138.84 89.95a10.382 10.382 0 0 1-14.85 6.058 10.383 10.383 0 0 1-5.391-10.186 10.382 10.382 0 0 1 16.937-6.949 10.393 10.393 0 0 1 3.725 7.039 10.373 10.373 0 0 1-.421 4.038ZM194.27 466a6.873 6.873 0 0 1-5.92 4.817 6.87 6.87 0 1 1 5.92-4.817Zm217.62 44a6.873 6.873 0 0 1-5.92 4.817 6.87 6.87 0 1 1 5.92-4.817Zm-181.18-32.83a6.872 6.872 0 0 1-13.405-2.7 6.876 6.876 0 0 1 4.857-5.889 6.867 6.867 0 0 1 3.988.009 6.881 6.881 0 0 1 4.56 8.58Zm-96.36-22.39a7.498 7.498 0 0 1-10.715 4.419 7.499 7.499 0 0 1 1.363-13.787 7.502 7.502 0 0 1 9.644 6.451 7.515 7.515 0 0 1-.292 2.917ZM376.21 605a7.503 7.503 0 0 1-6.448 5.273 7.496 7.496 0 0 1-7.342-3.934 7.506 7.506 0 0 1 .82-8.289 7.5 7.5 0 0 1 7.97-2.42 7.497 7.497 0 0 1 4.448 3.646 7.479 7.479 0 0 1 .552 5.724Z"/>
  <path fill="#E28025" d="M297 474.76a7.45 7.45 0 1 1-4.94-9.3 7.456 7.456 0 0 1 2.56 1.375 7.437 7.437 0 0 1 2.38 7.925Zm275.87 23.6a7.443 7.443 0 0 1-6.409 5.22 7.44 7.44 0 1 1 6.409-5.22Zm-7.87 50.9a7.437 7.437 0 0 1-6.409 5.22 7.44 7.44 0 1 1 1.479-14.52 7.45 7.45 0 0 1 4.93 9.3Zm-2.08 82.87a7.439 7.439 0 0 1-10.64 4.374 7.444 7.444 0 0 1-3.876-7.304 7.446 7.446 0 0 1 5.266-6.375 7.444 7.444 0 0 1 4.32.015 7.446 7.446 0 0 1 4.384 3.627 7.447 7.447 0 0 1 .546 5.663Zm-262.55-90.56a8.25 8.25 0 1 1-15.771-4.85 8.25 8.25 0 0 1 15.771 4.85ZM254 517.27a5.157 5.157 0 0 1-4.442 3.602 5.154 5.154 0 0 1-5.03-2.721 5.155 5.155 0 0 1 .584-5.689 5.152 5.152 0 0 1 5.478-1.642 5.156 5.156 0 0 1 3.04 2.519 5.156 5.156 0 0 1 .37 3.931Zm271.3-17.08a5.153 5.153 0 0 1-4.431 3.621 5.146 5.146 0 0 1-5.041-2.707 5.155 5.155 0 0 1 .573-5.694 5.142 5.142 0 0 1 5.479-1.65 5.152 5.152 0 0 1 3.42 6.43Zm-30.13 50.98a5.148 5.148 0 0 1-7.368 3.015 5.148 5.148 0 0 1 .969-9.465 5.15 5.15 0 0 1 6.399 6.45Zm-183.38-46.81a9.064 9.064 0 0 1-7.807 6.351 9.054 9.054 0 0 1-8.858-4.78 9.063 9.063 0 0 1 1.024-10.012 9.053 9.053 0 0 1 4.382-2.906 9.051 9.051 0 0 1 10.604 4.44 9.07 9.07 0 0 1 .655 6.907Zm134.29 46.12a9.07 9.07 0 1 1-17.342-5.325 9.07 9.07 0 0 1 17.342 5.325Zm-126.55 37.11a7.344 7.344 0 0 1-6.326 5.145 7.344 7.344 0 0 1-7.175-3.874 7.337 7.337 0 0 1 4.381-10.465 7.334 7.334 0 0 1 8.593 3.597 7.35 7.35 0 0 1 .527 5.597Zm-48.14-7.52a6.94 6.94 0 1 1-2.214-7.388 6.92 6.92 0 0 1 2.491 4.693 6.94 6.94 0 0 1-.277 2.695Zm262.13-17.13a6.94 6.94 0 1 1-4.6-8.67 6.999 6.999 0 0 1 4.6 8.67Zm-55.65 33.11a6.937 6.937 0 0 1-12.765 1.218 6.935 6.935 0 0 1 .779-7.672 6.939 6.939 0 0 1 7.386-2.216 6.938 6.938 0 0 1 4.099 3.38 6.927 6.927 0 0 1 .501 5.29Zm1.3-79.74a6.942 6.942 0 0 1-12.767 1.23 6.94 6.94 0 0 1 8.167-9.89 6.923 6.923 0 0 1 4.095 3.376 6.926 6.926 0 0 1 .505 5.284ZM256.06 629.7a6.886 6.886 0 0 1-5.936 4.835 6.896 6.896 0 0 1-6.739-3.635 6.894 6.894 0 0 1 .78-7.616 6.896 6.896 0 0 1 7.335-2.194 6.89 6.89 0 0 1 4.56 8.61Zm257.04-.38a6.892 6.892 0 0 1-9.854 4.034 6.89 6.89 0 0 1 5.284-12.654 6.898 6.898 0 0 1 4.57 8.62Z"/>
  <path fill="#9CC03B" d="M553.93 351.45a20.11 20.11 0 1 0-40.21 0c0 13.28 17.22 34.5 46.88 26.88-13.39-8.17-6.67-23.05-6.67-26.88Z"/>
</svg>
