<svg xmlns="http://www.w3.org/2000/svg" width="800" height="800" fill="none" viewBox="0 0 800 800">
  <path fill="#DCE9EC" d="M714.31 400c0 160.18-140.73 290-314.31 290S85.69 560.22 85.69 400 226.41 110 400 110s314.31 129.85 314.31 290Z"/>
  <path fill="#7E9499" d="M400 627.08c135.879 0 246.03-101.649 246.03-227.04C646.03 274.649 535.879 173 400 173c-135.879 0-246.03 101.649-246.03 227.04 0 125.391 110.151 227.04 246.03 227.04Z"/>
  <path fill="#B5CCD2" d="M624.8 400c0 114.56-100.65 207.44-224.8 207.44S175.2 514.6 175.2 400 275.85 192.59 400 192.59 624.8 285.47 624.8 400Z"/>
  <path fill="#F6C914" d="M523 283.49a12.198 12.198 0 0 1-12.2 12.19h-308a12.173 12.173 0 0 1-8.616-3.571 12.19 12.19 0 0 1-3.564-8.619 12.19 12.19 0 0 1 7.517-11.262 12.173 12.173 0 0 1 4.663-.928h308a12.198 12.198 0 0 1 12.2 12.19Z"/>
  <path fill="#E07B26" d="M707.42 414.05c0 62.12-39.67 112.5-88.58 112.5H181.16c-48.91 0-88.58-50.38-88.58-112.5v-28.78c0-62.14 39.67-112.5 88.58-112.5h437.68c48.91 0 88.58 50.36 88.58 112.5v28.78Z"/>
  <path fill="#F7B318" d="M707.42 317.48a45.89 45.89 0 0 0-45.89-45.89H138.46a45.886 45.886 0 0 0-32.446 13.442A45.878 45.878 0 0 0 92.58 317.48v2.29h614.84v-2.29Z"/>
  <path fill="#F68C1E" d="M246.46 273.8v20.4a10.62 10.62 0 1 0 21.24 0v-20.4h-21.24Zm95.28 0v20.4a10.62 10.62 0 1 0 21.24 0v-20.4h-21.24Zm95.26 0v20.4a10.62 10.62 0 1 0 21.24 0v-20.4H437Zm95.29 0v20.4a10.629 10.629 0 0 0 2.991 7.719 10.612 10.612 0 0 0 7.624 3.227A10.622 10.622 0 0 0 553.52 294.2v-20.4h-21.23Z"/>
  <path fill="#F7B318" d="M707.42 482.88a45.89 45.89 0 0 1-45.89 45.89H138.46a45.886 45.886 0 0 1-32.446-13.441A45.883 45.883 0 0 1 92.58 482.88v-2.29h614.84v2.29Z"/>
  <path fill="#F68C1E" d="M246.46 526.55v-20.4c0-2.817 1.119-5.518 3.111-7.509a10.616 10.616 0 0 1 15.018 0 10.616 10.616 0 0 1 3.111 7.509v20.4h-21.24Zm95.28 0v-20.4c0-2.817 1.119-5.518 3.111-7.509a10.616 10.616 0 0 1 15.018 0 10.616 10.616 0 0 1 3.111 7.509v20.4h-21.24Zm95.26 0v-20.4c0-2.817 1.119-5.518 3.111-7.509a10.616 10.616 0 0 1 15.018 0 10.616 10.616 0 0 1 3.111 7.509v20.4H437Zm95.29 0v-20.4a10.629 10.629 0 0 1 2.991-7.719 10.612 10.612 0 0 1 7.624-3.227 10.622 10.622 0 0 1 10.615 10.946v20.4h-21.23Z"/>
  <path fill="#B02224" d="M725 371.46a43.08 43.08 0 0 1-26.628 39.881 43.082 43.082 0 0 1-16.522 3.269h-563.7A43.15 43.15 0 0 1 75 371.46h650Z"/>
  <path fill="#EE3C3B" d="M725 371.46H75a43.212 43.212 0 0 1 43.15-43.14h563.7A43.09 43.09 0 0 1 725 371.46Z"/>
  <path fill="#BC2025" d="M532.75 423a32.308 32.308 0 0 1-30.75 0 52.733 52.733 0 0 0-51.69 0 32.308 32.308 0 0 1-30.75 0 52.725 52.725 0 0 0-51.68 0 32.33 32.33 0 0 1-30.76 0 52.712 52.712 0 0 0-51.68 0 32.308 32.308 0 0 1-30.75 0c-25.19-13.75-55.89-6.73-76.32 22.92a7.553 7.553 0 0 0 6.26 11.78c6.65 0 35.53-35 74.63-8.92a19.339 19.339 0 0 0 21.61 0c19.11-12.75 41.75-12.76 60.88 0a19.214 19.214 0 0 0 21.53 0c19.37-12.92 42-12.62 60.85 0a19.341 19.341 0 0 0 21.63 0c19.11-12.74 41.68-12.74 60.8 0a19.31 19.31 0 0 0 21.56.06l.28-.19c39.54-26.33 68.19 9.06 74.41 9.06a7.556 7.556 0 0 0 6.671-4.008 7.558 7.558 0 0 0-.401-7.772c-18.69-27.1-48.79-37.93-76.33-22.93Z"/>
  <path fill="#F6C914" d="M553.52 467.3a12.188 12.188 0 0 1-12.19 12.19h-308a12.191 12.191 0 0 1-8.616-3.571 12.19 12.19 0 0 1-3.564-8.619 12.19 12.19 0 0 1 7.517-11.262 12.173 12.173 0 0 1 4.663-.928h308a12.19 12.19 0 0 1 12.19 12.19Z"/>
</svg>
